<svg width="64" height="64" viewBox="0 0 64 64" fill="none" xmlns="http://www.w3.org/2000/svg">
<rect width="64" height="64" rx="32" fill="#2C5926"/>
<path d="M31.8499 42C31.9332 42 32.0166 41.9792 32.0999 41.9375C32.1832 41.8958 32.2457 41.8542 32.2874 41.8125L42.5374 31.5625C42.7874 31.3125 42.9697 31.0312 43.0843 30.7188C43.1989 30.4062 43.2562 30.0938 43.2562 29.7812C43.2562 29.4479 43.1989 29.1302 43.0843 28.8281C42.9697 28.526 42.7874 28.2604 42.5374 28.0312L37.2249 22.7188C36.9957 22.4688 36.7301 22.2865 36.428 22.1719C36.1259 22.0573 35.8082 22 35.4749 22C35.1624 22 34.8499 22.0573 34.5374 22.1719C34.2249 22.2865 33.9437 22.4688 33.6937 22.7188L33.3499 23.0625L35.6624 25.4062C35.9749 25.6979 36.2041 26.0312 36.3499 26.4062C36.4957 26.7812 36.5687 27.1771 36.5687 27.5938C36.5687 28.4688 36.2718 29.2031 35.678 29.7969C35.0843 30.3906 34.3499 30.6875 33.4749 30.6875C33.0582 30.6875 32.6572 30.6146 32.2718 30.4688C31.8864 30.3229 31.5478 30.1042 31.2562 29.8125L28.9124 27.5L23.4437 32.9688C23.3812 33.0312 23.3343 33.099 23.303 33.1719C23.2718 33.2448 23.2562 33.3229 23.2562 33.4062C23.2562 33.5729 23.3187 33.724 23.4437 33.8594C23.5687 33.9948 23.7145 34.0625 23.8812 34.0625C23.9645 34.0625 24.0478 34.0417 24.1312 34C24.2145 33.9583 24.277 33.9167 24.3187 33.875L28.5687 29.625L30.3187 31.375L26.0999 35.625C26.0374 35.6875 25.9905 35.7552 25.9593 35.8281C25.928 35.901 25.9124 35.9792 25.9124 36.0625C25.9124 36.2292 25.9749 36.375 26.0999 36.5C26.2249 36.625 26.3707 36.6875 26.5374 36.6875C26.6207 36.6875 26.7041 36.6667 26.7874 36.625C26.8707 36.5833 26.9332 36.5417 26.9749 36.5L31.2249 32.2812L32.9749 34.0312L28.7562 38.2812C28.6937 38.3229 28.6468 38.3854 28.6155 38.4688C28.5843 38.5521 28.5687 38.6354 28.5687 38.7188C28.5687 38.8854 28.6312 39.0312 28.7562 39.1562C28.8812 39.2812 29.027 39.3438 29.1937 39.3438C29.277 39.3438 29.3551 39.3281 29.428 39.2969C29.5009 39.2656 29.5687 39.2188 29.6312 39.1562L33.8812 34.9375L35.6312 36.6875L31.3812 40.9375C31.3187 41 31.2718 41.0677 31.2405 41.1406C31.2093 41.2135 31.1937 41.2917 31.1937 41.375C31.1937 41.5417 31.2614 41.6875 31.3968 41.8125C31.5322 41.9375 31.6832 42 31.8499 42ZM31.8187 44.5C31.0478 44.5 30.3655 44.2448 29.7718 43.7344C29.178 43.224 28.8291 42.5833 28.7249 41.8125C28.0166 41.7083 27.4228 41.4167 26.9437 40.9375C26.4645 40.4583 26.1728 39.8646 26.0687 39.1562C25.3603 39.0521 24.7718 38.7552 24.303 38.2656C23.8343 37.776 23.5478 37.1875 23.4437 36.5C22.652 36.3958 22.0062 36.0521 21.5062 35.4688C21.0062 34.8854 20.7562 34.1979 20.7562 33.4062C20.7562 32.9896 20.8343 32.5885 20.9905 32.2031C21.1468 31.8177 21.3707 31.4792 21.6624 31.1875L28.9124 23.9688L33.0062 28.0625C33.0478 28.125 33.1103 28.1719 33.1937 28.2031C33.277 28.2344 33.3603 28.25 33.4437 28.25C33.6312 28.25 33.7874 28.1927 33.9124 28.0781C34.0374 27.9635 34.0999 27.8125 34.0999 27.625C34.0999 27.5417 34.0843 27.4583 34.053 27.375C34.0218 27.2917 33.9749 27.2292 33.9124 27.1875L29.4437 22.7188C29.2145 22.4688 28.9489 22.2865 28.6468 22.1719C28.3447 22.0573 28.027 22 27.6937 22C27.3812 22 27.0687 22.0573 26.7562 22.1719C26.4437 22.2865 26.1624 22.4688 25.9124 22.7188L21.5062 27.1562C21.3187 27.3438 21.1624 27.5625 21.0374 27.8125C20.9124 28.0625 20.8291 28.3125 20.7874 28.5625C20.7457 28.8125 20.7457 29.0677 20.7874 29.3281C20.8291 29.5885 20.9124 29.8333 21.0374 30.0625L19.2249 31.875C18.8707 31.3958 18.6103 30.8698 18.4437 30.2969C18.277 29.724 18.2145 29.1458 18.2562 28.5625C18.2978 27.9792 18.4437 27.4115 18.6937 26.8594C18.9437 26.3073 19.2874 25.8125 19.7249 25.375L24.1312 20.9688C24.6312 20.4896 25.1884 20.125 25.803 19.875C26.4176 19.625 27.0478 19.5 27.6937 19.5C28.3395 19.5 28.9697 19.625 29.5843 19.875C30.1989 20.125 30.7457 20.4896 31.2249 20.9688L31.5687 21.3125L31.9124 20.9688C32.4124 20.4896 32.9697 20.125 33.5843 19.875C34.1989 19.625 34.8291 19.5 35.4749 19.5C36.1207 19.5 36.7509 19.625 37.3655 19.875C37.9801 20.125 38.527 20.4896 39.0062 20.9688L44.2874 26.25C44.7666 26.7292 45.1312 27.2812 45.3812 27.9062C45.6312 28.5312 45.7562 29.1667 45.7562 29.8125C45.7562 30.4583 45.6312 31.0885 45.3812 31.7031C45.1312 32.3177 44.7666 32.8646 44.2874 33.3438L34.0374 43.5625C33.7457 43.8542 33.4072 44.0833 33.0218 44.25C32.6364 44.4167 32.2353 44.5 31.8187 44.5Z" fill="white"/>
</svg>
