<svg width="64" height="64" viewBox="0 0 64 64" fill="none" xmlns="http://www.w3.org/2000/svg">
<rect width="64" height="64" rx="32" fill="#2C5926"/>
<path d="M32 44.5C30.2708 44.5 28.6458 44.1719 27.125 43.5156C25.6042 42.8594 24.2812 41.9688 23.1562 40.8438C22.0312 39.7188 21.1406 38.3958 20.4844 36.875C19.8281 35.3542 19.5 33.7292 19.5 32C19.5 30.2708 19.8281 28.6458 20.4844 27.125C21.1406 25.6042 22.0312 24.2812 23.1562 23.1562C24.2812 22.0312 25.6042 21.1406 27.125 20.4844C28.6458 19.8281 30.2708 19.5 32 19.5C33.7292 19.5 35.3542 19.8281 36.875 20.4844C38.3958 21.1406 39.7188 22.0312 40.8438 23.1562C41.9688 24.2812 42.8594 25.6042 43.5156 27.125C44.1719 28.6458 44.5 30.2708 44.5 32C44.5 33.7292 44.1719 35.3542 43.5156 36.875C42.8594 38.3958 41.9688 39.7188 40.8438 40.8438C39.7188 41.9688 38.3958 42.8594 36.875 43.5156C35.3542 44.1719 33.7292 44.5 32 44.5ZM30.75 41.9375V39.5C30.0625 39.5 29.474 39.2552 28.9844 38.7656C28.4948 38.276 28.25 37.6875 28.25 37V35.75L22.25 29.75C22.1875 30.125 22.1302 30.5 22.0781 30.875C22.026 31.25 22 31.625 22 32C22 34.5208 22.8281 36.7292 24.4844 38.625C26.1406 40.5208 28.2292 41.625 30.75 41.9375ZM39.375 38.75C40.2292 37.8125 40.8802 36.7656 41.3281 35.6094C41.776 34.4531 42 33.25 42 32C42 29.9583 41.4323 28.0938 40.2969 26.4062C39.1615 24.7188 37.6458 23.5 35.75 22.75V23.25C35.75 23.9375 35.5052 24.526 35.0156 25.0156C34.526 25.5052 33.9375 25.75 33.25 25.75H30.75V28.25C30.75 28.6042 30.6302 28.901 30.3906 29.1406C30.151 29.3802 29.8542 29.5 29.5 29.5H27V32H34.5C34.8542 32 35.151 32.1198 35.3906 32.3594C35.6302 32.599 35.75 32.8958 35.75 33.25V37H37C37.5417 37 38.0312 37.1615 38.4688 37.4844C38.9062 37.8073 39.2083 38.2292 39.375 38.75Z" fill="white"/>
</svg>
