<svg width="167" height="28" viewBox="0 0 167 28" fill="none" xmlns="http://www.w3.org/2000/svg">
<path d="M3.9375 22.375V5.625C3.9375 5.625 3.9375 6.06771 3.9375 6.95312C3.9375 7.83854 3.9375 8.95833 3.9375 10.3125V17.75C3.9375 19.1042 3.9375 20.2135 3.9375 21.0781C3.9375 21.9427 3.9375 22.375 3.9375 22.375ZM3.9375 26.3125C2.83333 26.3125 1.90104 25.9323 1.14062 25.1719C0.380208 24.4115 0 23.4792 0 22.375V5.625C0 4.52083 0.380208 3.58854 1.14062 2.82812C1.90104 2.06771 2.83333 1.6875 3.9375 1.6875H20.6875C21.7917 1.6875 22.724 2.06771 23.4844 2.82812C24.2448 3.58854 24.625 4.52083 24.625 5.625V8.375H20.6875V5.625H3.9375V22.375H20.6875V19.625H24.625V22.375C24.625 23.4792 24.2448 24.4115 23.4844 25.1719C22.724 25.9323 21.7917 26.3125 20.6875 26.3125H3.9375ZM13.625 20.25C12.9203 20.25 12.3171 20.0104 11.8152 19.5312C11.3134 19.0521 11.0625 18.4583 11.0625 17.75V10.3125C11.0625 9.60781 11.3134 9.00456 11.8152 8.50274C12.3171 8.00091 12.9203 7.75 13.625 7.75H23.3438C24.0521 7.75 24.651 8.00091 25.1406 8.50274C25.6302 9.00456 25.875 9.60781 25.875 10.3125V17.7656C25.875 18.4488 25.6302 19.0337 25.1406 19.5202C24.651 20.0067 24.0521 20.25 23.3438 20.25H13.625ZM23.4062 17.75V10.25H13.5625V17.75H23.4062ZM17.3125 15.875C17.8333 15.875 18.276 15.6927 18.6406 15.3281C19.0052 14.9635 19.1875 14.5208 19.1875 14C19.1875 13.4792 19.0052 13.0365 18.6406 12.6719C18.276 12.3073 17.8333 12.125 17.3125 12.125C16.7917 12.125 16.349 12.3073 15.9844 12.6719C15.6198 13.0365 15.4375 13.4792 15.4375 14C15.4375 14.5208 15.6198 14.9635 15.9844 15.3281C16.349 15.6927 16.7917 15.875 17.3125 15.875Z" fill="#2C5926"/>
<path d="M34.3383 21L39.191 6.44922H43.8035L48.8063 21H44.9383L42.9137 14.6383C42.5913 13.58 42.2788 12.4541 41.9762 11.2608C41.6736 10.0674 41.3704 8.82748 41.0668 7.54102H41.834C41.5418 8.8306 41.2585 10.0736 40.984 11.2701C40.7095 12.4666 40.4184 13.5893 40.1106 14.6383L38.1664 21H34.3383ZM37.6328 17.9024V15.2719H45.5117V17.9024H37.6328ZM54.2734 25.3164C53.3227 25.3164 52.4921 25.1965 51.7816 24.9568C51.0712 24.7171 50.4972 24.3822 50.0596 23.9521C49.6219 23.5221 49.3362 23.0219 49.2023 22.4516L52.1645 21.8453C52.2317 22.0437 52.3524 22.2266 52.5266 22.3939C52.7008 22.5613 52.9317 22.6948 53.2191 22.7947C53.5066 22.8946 53.8531 22.9445 54.2586 22.9445C54.9529 22.9445 55.4863 22.7881 55.859 22.4754C56.2316 22.1626 56.418 21.6807 56.418 21.0297V19.0945H56.1629C56.0293 19.4216 55.8341 19.7185 55.5773 19.9852C55.3206 20.2518 54.9958 20.4633 54.6031 20.6195C54.2104 20.7758 53.7417 20.8539 53.1969 20.8539C52.3987 20.8539 51.6686 20.667 51.0066 20.2932C50.3447 19.9193 49.8156 19.3402 49.4193 18.5559C49.0231 17.7715 48.825 16.7651 48.825 15.5367C48.825 14.262 49.0297 13.212 49.4393 12.3869C49.8488 11.5618 50.3849 10.9486 51.0477 10.5473C51.7104 10.146 52.425 9.94531 53.1914 9.94531C53.7708 9.94531 54.2668 10.0436 54.6793 10.24C55.0918 10.4365 55.433 10.6895 55.7029 10.9988C55.9728 11.3082 56.1771 11.6273 56.3156 11.9563H56.4148V10.082H59.7789V20.7562C59.7789 21.7581 59.5463 22.5977 59.0811 23.275C58.6158 23.9523 57.9703 24.4619 57.1445 24.8037C56.3188 25.1455 55.3617 25.3164 54.2734 25.3164ZM54.3656 18.3562C54.8021 18.3562 55.1727 18.2445 55.4775 18.0209C55.7824 17.7973 56.0161 17.4737 56.1787 17.05C56.3413 16.6263 56.4226 16.1187 56.4226 15.5273C56.4226 14.9307 56.3417 14.4145 56.1799 13.9787C56.018 13.5429 55.7847 13.2056 55.4799 12.9668C55.1751 12.728 54.8036 12.6086 54.3656 12.6086C53.9279 12.6086 53.557 12.7304 53.2531 12.9738C52.9492 13.2173 52.7188 13.5574 52.5619 13.994C52.405 14.4305 52.3266 14.9417 52.3266 15.5273C52.3266 16.1128 52.4054 16.6177 52.5631 17.0422C52.7208 17.4667 52.9516 17.7918 53.2555 18.0176C53.5594 18.2433 53.9294 18.3562 54.3656 18.3562ZM61.5316 21V10.082H64.834V12.0734H64.9512C65.1481 11.3518 65.4731 10.816 65.9264 10.4658C66.3796 10.1157 66.9046 9.94063 67.5012 9.94063C67.6611 9.94063 67.8268 9.9513 67.9984 9.97266C68.1701 9.99401 68.3277 10.0253 68.4715 10.0664V13.0289C68.3106 12.9714 68.0975 12.9283 67.8322 12.8998C67.567 12.8713 67.3296 12.857 67.1199 12.857C66.703 12.857 66.3287 12.9488 65.9969 13.1322C65.6651 13.3157 65.4055 13.5707 65.2182 13.8971C65.0308 14.2235 64.9371 14.6044 64.9371 15.0399V21H61.5316ZM73.9402 21.2047C72.8022 21.2047 71.8221 20.9691 71 20.4979C70.1779 20.0266 69.5473 19.3691 69.1084 18.5252C68.6695 17.6813 68.45 16.6995 68.45 15.5797C68.45 14.4552 68.6695 13.4706 69.1084 12.626C69.5473 11.7813 70.1779 11.1234 71 10.6521C71.8221 10.1809 72.8022 9.94531 73.9402 9.94531C75.0798 9.94531 76.0586 10.1809 76.8766 10.6521C77.6945 11.1234 78.323 11.7813 78.7619 12.626C79.2009 13.4706 79.4203 14.4552 79.4203 15.5797C79.4203 16.6995 79.2009 17.6813 78.7619 18.5252C78.323 19.3691 77.6945 20.0266 76.8766 20.4979C76.0586 20.9691 75.0798 21.2047 73.9402 21.2047ZM73.9402 18.6008C74.3741 18.6008 74.7408 18.4738 75.0404 18.2199C75.34 17.966 75.5667 17.6106 75.7203 17.1537C75.8739 16.6968 75.9508 16.1672 75.9508 15.5648C75.9508 14.956 75.8739 14.426 75.7203 13.975C75.5667 13.524 75.34 13.1736 75.0404 12.9238C74.7408 12.6741 74.3741 12.5492 73.9402 12.5492C73.503 12.5492 73.1341 12.6741 72.8336 12.9238C72.5331 13.1736 72.306 13.5236 72.1524 13.9738C71.9987 14.4241 71.9219 14.9544 71.9219 15.5648C71.9219 16.1672 71.9987 16.6968 72.1524 17.1537C72.306 17.6106 72.5331 17.966 72.8336 18.2199C73.1341 18.4738 73.503 18.6008 73.9402 18.6008ZM80.7633 21V6.44922H90.8625V9.26252H84.207V12.2719H90.332V15.0258H84.207V18.1867H90.8539V21H80.7633ZM91.6492 21L95.8371 14.0676L95.8348 16.7215L91.8516 10.082H95.4684L96.3063 11.6445C96.6034 12.2112 96.8768 12.7866 97.1266 13.3707C97.3763 13.9548 97.6255 14.5202 97.8742 15.0668H96.6816C96.9467 14.5251 97.206 13.961 97.4594 13.3744C97.7128 12.7878 97.9962 12.2112 98.3098 11.6445L99.1918 10.082H102.74L98.6629 16.7328V14.098L102.886 21H99.2937L98.2414 19.1055C97.931 18.537 97.6455 17.9577 97.385 17.3676C97.1244 16.7775 96.8632 16.2115 96.6012 15.6695H97.7961C97.549 16.2115 97.3016 16.7775 97.0539 17.3676C96.8063 17.9577 96.5314 18.537 96.2293 19.1055L95.1945 21H91.6492ZM103.838 25.082V10.082H107.2V11.9563H107.321C107.46 11.6273 107.659 11.3086 107.92 11C108.181 10.6914 108.516 10.4385 108.926 10.2412C109.335 10.0439 109.83 9.94531 110.411 9.94531C111.179 9.94531 111.892 10.146 112.551 10.5473C113.21 10.9486 113.742 11.5633 114.148 12.3916C114.555 13.2199 114.758 14.2745 114.758 15.5555C114.758 16.7885 114.563 17.8208 114.172 18.6523C113.781 19.4839 113.255 20.1097 112.594 20.5299C111.933 20.9501 111.196 21.1602 110.384 21.1602C109.832 21.1602 109.353 21.0673 108.947 20.8816C108.542 20.696 108.205 20.4567 107.938 20.1639C107.67 19.871 107.465 19.5594 107.321 19.2289H107.244V25.082H103.838ZM109.222 18.4969C109.663 18.4969 110.034 18.3748 110.335 18.1307C110.635 17.8865 110.864 17.5426 111.021 17.099C111.178 16.6554 111.256 16.1393 111.256 15.5508C111.256 14.9589 111.178 14.4426 111.022 14.0022C110.866 13.5617 110.638 13.2193 110.337 12.975C110.036 12.7307 109.665 12.6086 109.222 12.6086C108.789 12.6086 108.419 12.7284 108.111 12.968C107.804 13.2076 107.569 13.5468 107.408 13.9857C107.246 14.4247 107.165 14.9464 107.165 15.5508C107.165 16.1453 107.246 16.6628 107.409 17.1031C107.571 17.5435 107.807 17.8859 108.115 18.1303C108.423 18.3747 108.792 18.4969 109.222 18.4969ZM121.159 21.2047C120.021 21.2047 119.041 20.9691 118.219 20.4979C117.397 20.0266 116.766 19.3691 116.327 18.5252C115.888 17.6813 115.669 16.6995 115.669 15.5797C115.669 14.4552 115.888 13.4706 116.327 12.626C116.766 11.7813 117.397 11.1234 118.219 10.6521C119.041 10.1809 120.021 9.94531 121.159 9.94531C122.299 9.94531 123.277 10.1809 124.095 10.6521C124.913 11.1234 125.542 11.7813 125.981 12.626C126.42 13.4706 126.639 14.4552 126.639 15.5797C126.639 16.6995 126.42 17.6813 125.981 18.5252C125.542 19.3691 124.913 20.0266 124.095 20.4979C123.277 20.9691 122.299 21.2047 121.159 21.2047ZM121.159 18.6008C121.593 18.6008 121.96 18.4738 122.259 18.2199C122.559 17.966 122.785 17.6106 122.939 17.1537C123.093 16.6968 123.17 16.1672 123.17 15.5648C123.17 14.956 123.093 14.426 122.939 13.975C122.785 13.524 122.559 13.1736 122.259 12.9238C121.96 12.6741 121.593 12.5492 121.159 12.5492C120.722 12.5492 120.353 12.6741 120.052 12.9238C119.752 13.1736 119.525 13.5236 119.371 13.9738C119.217 14.4241 119.141 14.9544 119.141 15.5648C119.141 16.1672 119.217 16.6968 119.371 17.1537C119.525 17.6106 119.752 17.966 120.052 18.2199C120.353 18.4738 120.722 18.6008 121.159 18.6008ZM127.975 21V10.082H131.277V12.0734H131.395C131.591 11.3518 131.916 10.816 132.37 10.4658C132.823 10.1157 133.348 9.94063 133.945 9.94063C134.104 9.94063 134.27 9.9513 134.442 9.97266C134.613 9.99401 134.771 10.0253 134.915 10.0664V13.0289C134.754 12.9714 134.541 12.9283 134.276 12.8998C134.01 12.8713 133.773 12.857 133.563 12.857C133.146 12.857 132.772 12.9488 132.44 13.1322C132.108 13.3157 131.849 13.5707 131.662 13.8971C131.474 14.2235 131.38 14.6044 131.38 15.0399V21H127.975ZM142.179 10.082V12.6102H135.361V10.082H142.179ZM136.809 7.48438H140.214V17.6559C140.214 17.9462 140.283 18.1616 140.42 18.3021C140.556 18.4426 140.779 18.5129 141.088 18.5129C141.204 18.5129 141.367 18.4986 141.58 18.4701C141.792 18.4416 141.942 18.4143 142.031 18.3883L142.474 20.8746C142.089 20.9842 141.717 21.059 141.36 21.099C141.003 21.139 140.663 21.159 140.341 21.159C139.185 21.159 138.307 20.8865 137.708 20.3414C137.109 19.7964 136.809 19.0036 136.809 17.9633V7.48438ZM146.641 21L151.494 6.44922H156.106L161.109 21H157.241L155.216 14.6383C154.894 13.58 154.582 12.4541 154.279 11.2608C153.976 10.0674 153.673 8.82748 153.37 7.54102H154.137C153.845 8.8306 153.561 10.0736 153.287 11.2701C153.012 12.4666 152.721 13.5893 152.413 14.6383L150.469 21H146.641ZM149.936 17.9024V15.2719H157.814V17.9024H149.936ZM165.646 6.44922V21H162.203V6.44922H165.646Z" fill="#2C5926"/>
</svg>
