<svg width="42" height="40" viewBox="0 0 42 40" fill="none" xmlns="http://www.w3.org/2000/svg">
<rect width="42" height="40" rx="20" fill="#2C5926" fill-opacity="0.1"/>
<path d="M21 29C18.7 29 16.6958 28.2375 14.9875 26.7125C13.2792 25.1875 12.3 23.2833 12.05 21H14.1C14.3333 22.7333 15.1042 24.1667 16.4125 25.3C17.7208 26.4333 19.25 27 21 27C22.95 27 24.6042 26.3208 25.9625 24.9625C27.3208 23.6042 28 21.95 28 20C28 18.05 27.3208 16.3958 25.9625 15.0375C24.6042 13.6792 22.95 13 21 13C19.85 13 18.775 13.2667 17.775 13.8C16.775 14.3333 15.9333 15.0667 15.25 16H18V18H12V12H14V14.35C14.85 13.2833 15.8875 12.4583 17.1125 11.875C18.3375 11.2917 19.6333 11 21 11C22.25 11 23.4208 11.2375 24.5125 11.7125C25.6042 12.1875 26.5542 12.8292 27.3625 13.6375C28.1708 14.4458 28.8125 15.3958 29.2875 16.4875C29.7625 17.5792 30 18.75 30 20C30 21.25 29.7625 22.4208 29.2875 23.5125C28.8125 24.6042 28.1708 25.5542 27.3625 26.3625C26.5542 27.1708 25.6042 27.8125 24.5125 28.2875C23.4208 28.7625 22.25 29 21 29ZM23.8 24.2L20 20.4V15H22V19.6L25.2 22.8L23.8 24.2Z" fill="#2C5926"/>
</svg>
