<svg width="64" height="64" viewBox="0 0 64 64" fill="none" xmlns="http://www.w3.org/2000/svg">
<rect width="64" height="64" rx="32" fill="#2C5926"/>
<path d="M31.8125 44.5L37.5 29.5H40.125L45.8125 44.5H43.1875L41.8438 40.6875H35.7812L34.4375 44.5H31.8125ZM21.9375 40.75L20.1875 39L26.5 32.6875C25.7708 31.9583 25.1094 31.125 24.5156 30.1875C23.9219 29.25 23.375 28.1875 22.875 27H25.5C25.9167 27.8125 26.3333 28.5208 26.75 29.125C27.1667 29.7292 27.6667 30.3333 28.25 30.9375C28.9375 30.25 29.651 29.2865 30.3906 28.0469C31.1302 26.8073 31.6875 25.625 32.0625 24.5H18.1875V22H26.9375V19.5H29.4375V22H38.1875V24.5H34.5625C34.125 26 33.4688 27.5417 32.5938 29.125C31.7188 30.7083 30.8542 31.9167 30 32.75L33 35.8125L32.0625 38.375L28.25 34.4688L21.9375 40.75ZM36.5625 38.5H41.0625L38.8125 32.125L36.5625 38.5Z" fill="white"/>
</svg>
